<?xml version="1.0" encoding="utf-8"?>
<!-- Generator: Adobe Illustrator 24.0.1, SVG Export Plug-In . SVG Version: 6.00 Build 0)  -->
<svg version="1.1" id="Capa_1" xmlns="http://www.w3.org/2000/svg" xmlns:xlink="http://www.w3.org/1999/xlink" x="0px" y="0px"
	 viewBox="0 0 113 108" style="enable-background:new 0 0 113 108;" xml:space="preserve">
<style type="text/css">
	.st0{fill:#32407b;}
</style>
<path class="st0" d="M102.9,13.8c-0.8-1.8-2.1-2.7-4.1-2.7c0,0,0,0,0,0c-28.2,0-56.4,0-84.6,0c-1.9,0-3.2,0.7-3.8,2.1
	c-1,2.1,0.4,3.8,0.8,4.3l12.7,15.4c6.4,7.8,12.8,15.6,19.3,23.3c0.3,0.4,0.4,0.7,0.4,1.2c0,11.6,0,23.3,0,34.9c0,0.5,0,1,0.1,1.5
	c0.2,1.7,1.5,3,3.1,3.1c0.1,0,0.2,0,0.3,0c0.8,0,1.6-0.2,2.3-0.6c2.8-1.4,5.6-2.7,8.3-4.1c3-1.5,6-3,9-4.4c1.9-0.9,2.8-2.3,2.8-4.5
	c0-8.7,0-17.3,0.1-26c0-0.3,0.1-0.7,0.3-0.9c5.9-7.1,11.8-14.3,17.6-21.4l12.7-15.4c0.7-0.8,1.3-1.7,1.9-2.5l1-1.4v-1.5L102.9,13.8z
	 M62.1,56.4c0,4.6,0,9.2,0,13.7c0,3.8,0,7.6,0,11.5c0,0.3,0,0.3-0.3,0.5c-2.8,1.3-5.5,2.7-8.2,4.1l-2.6,1.3l0-7.5
	c0-7.7,0-15.4,0-23.2c0-1.8-0.5-3.2-1.6-4.5c-7.8-9.4-15.6-18.9-23.4-28.4l-4.4-5.3h70l-4.4,5.4c-7.9,9.5-15.7,19.1-23.6,28.6
	C62.5,53.6,62.1,54.9,62.1,56.4z"/>
</svg>
