<?xml version="1.0" encoding="utf-8"?>
<!-- Generator: Adobe Illustrator 24.0.1, SVG Export Plug-In . SVG Version: 6.00 Build 0)  -->
<svg version="1.1" id="Capa_1" xmlns="http://www.w3.org/2000/svg" xmlns:xlink="http://www.w3.org/1999/xlink" x="0px" y="0px"
	 viewBox="0 0 126 125.4" style="enable-background:new 0 0 126 125.4;" xml:space="preserve">
<style type="text/css">
	.st0{fill:#32407b;}
</style>
<g>
	<path class="st0" d="M116.8,50.4c-1.6-0.8-3-1-4.1-0.5c-1.2,0.4-2.1,1.4-2.9,3.1c-0.6,1.4-1.1,2.8-1.5,4.1
		c-2.3,7.6-4.6,15.2-7,22.9l-2,6.7H48.8l-0.2-0.8c-0.2-0.7-0.3-1.2-0.5-1.8l-2.7-13.6c-2.3-11.6-4.6-23.7-6.8-35.6
		c-0.9-4.8-3-7.2-7.4-8c-3.8-0.8-7.7-1.8-11.6-2.9c-2-0.5-4-1.1-5.9-1.6c-3.8-1-6.5,0.2-7.3,3.2c-0.4,1.4-0.2,2.7,0.4,3.8
		c0.8,1.4,2.3,2.4,4.4,2.9c5.8,1.5,10.7,2.6,15.2,3.7c1.8,0.4,2.5,1.1,2.8,3c1.7,10.2,3.6,20.4,5.4,30.3l0.8,4.5
		c0.9,5.2,1.9,10.5,2.8,15.7c1.2,6.6,2.5,7.7,9.2,7.7h51.7c6.4,0,7.5-0.8,9.4-6.8l2.3-7.2c2.5-8,5.4-17,8.4-25.6
		C120.5,53.8,119.8,51.9,116.8,50.4z"/>
	<path class="st0" d="M94.2,100.9L94.2,100.9c-5,0-9.4,4.3-9.4,9.4c0,2.6,1,5,2.8,6.8c1.7,1.7,4.2,2.7,6.8,2.8
		c5.1-0.1,9.2-4.3,9.2-9.5C103.6,105.2,99.3,100.9,94.2,100.9z"/>
	<path class="st0" d="M52.9,100.9l-0.4,0c-5.1,0-9.1,3.9-9.3,9c-0.1,2.7,0.8,5.2,2.5,7.1c1.7,1.8,4,2.8,6.7,2.9
		c5.2,0,9.2-3.9,9.3-9.1C61.9,105.3,58.1,101.1,52.9,100.9z"/>
	<path class="st0" d="M69.1,46.4l0.7,0.8c2,1.9,4.6,3,7.5,3c2.9,0,5.8-1.2,7.9-3.3l26-32.6c0.9-1.1,1.3-2.5,1.1-4
		c-0.2-1.4-0.9-2.7-2.1-3.7c-1.1-0.9-2.5-1.3-3.9-1.1c-1.4,0.2-2.7,0.9-3.6,2L77.3,39.2l-8.5-14.3c-0.7-1.2-1.9-2.1-3.3-2.5
		c-1.4-0.3-2.8-0.1-4.1,0.6c-1.2,0.7-2.1,1.9-2.5,3.3c-0.4,1.4-0.1,2.8,0.6,4.1L69.1,46.4z"/>
</g>
</svg>
