<?xml version="1.0" encoding="utf-8"?>
<!-- Generator: Adobe Illustrator 24.0.1, SVG Export Plug-In . SVG Version: 6.00 Build 0)  -->
<svg version="1.1" id="Capa_1" xmlns="http://www.w3.org/2000/svg" xmlns:xlink="http://www.w3.org/1999/xlink" x="0px" y="0px"
	 viewBox="0 0 108 108" style="enable-background:new 0 0 108 108;" xml:space="preserve">
<style type="text/css">
	.st0{fill:#32407b;}
</style>
<path class="st0" d="M79.2,12.4H28.8c-9,0-16.4,7.3-16.4,16.4v50.4c0,9,7.3,16.4,16.4,16.4h50.4c9,0,16.4-7.3,16.4-16.4V28.8
	C95.6,19.8,88.2,12.4,79.2,12.4z M21.3,28.8c0-4.1,3.4-7.5,7.5-7.5h50.4c4.1,0,7.5,3.4,7.5,7.5v50.4c0,4.1-3.4,7.5-7.5,7.5H28.8
	c-4.1,0-7.5-3.4-7.5-7.5V28.8z"/>
</svg>
