<?xml version="1.0" encoding="utf-8"?>
<!-- Generator: Adobe Illustrator 24.0.1, SVG Export Plug-In . SVG Version: 6.00 Build 0)  -->
<svg version="1.1" id="Capa_1" xmlns="http://www.w3.org/2000/svg" xmlns:xlink="http://www.w3.org/1999/xlink" x="0px" y="0px"
	 viewBox="0 0 108 108" style="enable-background:new 0 0 108 108;" xml:space="preserve">
<style type="text/css">
	.st0{fill:#32407b;}
</style>
<g>
	<g>
		<path class="st0" d="M41,32.2h55.5c2.6,0,4.7-2.1,4.7-4.7s-2.1-4.7-4.7-4.7H41c-2.6,0-4.7,2.1-4.7,4.7S38.5,32.2,41,32.2z"/>
		<path class="st0" d="M14.9,19.7c-4.5,0-8.2,3.7-8.2,8.2c0,4.5,3.7,8.2,8.2,8.2c4.5,0,8.2-3.7,8.2-8.2C23,23.4,19.4,19.7,14.9,19.7
			z"/>
		<path class="st0" d="M96.6,48.9H41c-2.6,0-4.7,2.1-4.7,4.7c0,2.6,2.1,4.7,4.7,4.7h55.5c2.6,0,4.7-2.1,4.7-4.7
			C101.2,51,99.1,48.9,96.6,48.9z"/>
		<path class="st0" d="M14.9,45.8c-4.5,0-8.2,3.7-8.2,8.2c0,4.5,3.7,8.2,8.2,8.2c4.5,0,8.2-3.7,8.2-8.2C23,49.5,19.4,45.8,14.9,45.8
			z"/>
		<path class="st0" d="M96.6,75H41c-2.6,0-4.7,2.1-4.7,4.7c0,2.6,2.1,4.7,4.7,4.7h55.5c2.6,0,4.7-2.1,4.7-4.7
			C101.2,77.1,99.1,75,96.6,75z"/>
		<path class="st0" d="M14.9,71.9c-4.5,0-8.2,3.7-8.2,8.2c0,4.5,3.7,8.2,8.2,8.2c4.5,0,8.2-3.7,8.2-8.2C23,75.6,19.4,71.9,14.9,71.9
			z"/>
	</g>
</g>
</svg>
