<?xml version="1.0" encoding="utf-8"?>
<!-- Generator: Adobe Illustrator 24.0.1, SVG Export Plug-In . SVG Version: 6.00 Build 0)  -->
<svg version="1.1" id="Capa_1" xmlns="http://www.w3.org/2000/svg" xmlns:xlink="http://www.w3.org/1999/xlink" x="0px" y="0px"
	 viewBox="0 0 111.4 134.8" style="enable-background:new 0 0 111.4 134.8;" xml:space="preserve">
<style type="text/css">
	.st0{fill:#32407b;}
</style>
<g>
	<path class="st0" d="M105.2,103c-0.2-3.4-2-6.3-5.3-9c-3.7-2.9-8.1-4.9-14-6.5c-2.4-0.7-4.9-1.2-7.3-1.7c-1.1-0.2-2.2-0.5-3.2-0.7
		L75.1,85c0.1-0.1,0.1-0.2,0.2-0.3c1.2-1.9,2.4-3.8,3.6-5.7c2.5-3.9,5.2-8,7.7-12.1c4.1-6.5,5.9-13.7,5.4-21.4
		c-0.7-10.3-5-19-12.8-25.8c-5.2-4.5-11.3-7.3-18.2-8.4c-0.7-0.1-1.4-0.2-2.2-0.3l-1-0.1h-4.4l-0.1,0c-0.8,0.2-1.6,0.3-2.4,0.4
		c-1.8,0.3-3.6,0.6-5.4,1.1c-7.2,2-13.4,6.2-18.4,12.4c-3.6,4.4-5.9,9.5-7.1,14.9c-2.1,9.8-0.5,19,4.8,27.4c2.5,4,5.1,8,7.7,12
		c1.2,1.9,2.4,3.7,3.6,5.6c0,0,0,0.1,0.1,0.1c-0.1,0-0.1,0-0.2,0c-7.6,1.3-13.2,2.9-18.2,5.3c-3,1.4-6.3,3.1-8.8,6.2
		c-3.9,4.8-3.7,10.4,0.6,14.9c3.2,3.4,7.2,5.3,10.7,6.6c5.9,2.3,12.6,3.9,20.5,4.8c1.9,0.2,3.9,0.4,5.8,0.5c1,0.1,1.9,0.1,2.9,0.2
		c0.2,0,0.4,0.1,0.6,0.1l0.4,0.1l10.3,0l1.5-0.1c1.2-0.1,2.3-0.2,3.5-0.3c8.8-0.7,16.3-2.1,23-4.4c5-1.7,8.6-3.6,11.6-6.1
		C103.9,109.9,105.4,106.7,105.2,103z M79.9,63.6L56,101.1c-0.1,0.2-0.2,0.3-0.3,0.5l-3.8-6c-2.7-4.3-5.4-8.6-8.2-12.8
		c-1.3-2.1-2.7-4.2-4-6.3c-2.8-4.3-5.7-8.8-8.4-13.3c-6-9.9-6.1-20-0.5-30.1C35,25.6,41.4,20.9,50,19.2c1.9-0.4,3.9-0.6,5.8-0.6
		c13,0,24.7,8.9,28,22.1C85.8,48.7,84.5,56.4,79.9,63.6z M41.1,92.5c2.3,3.6,4.5,7.2,6.8,10.8c1.4,2.2,2.8,4.5,4.3,6.7
		c0.6,1,1.4,1.9,2.8,2.2c1.7,0.3,3.1-0.4,4.2-2.1c1.1-1.7,2.2-3.5,3.3-5.2c2.2-3.5,4.6-7.1,6.7-10.8c1.1-1.8,2-2.3,4-1.9
		c5.9,1.1,12,2.3,17.7,5.1c1.8,0.9,3.6,2.1,5,3.3c1.2,1,1.8,2,1.8,3c0,1-0.6,2.1-1.9,3.2c-2.9,2.6-6.4,3.9-9.7,5.1
		c-6.9,2.3-14.6,3.7-23.5,4.1c-1.6,0.1-3.2,0.1-4.8,0c-0.7,0-1.5,0-2.2,0h0h0c-10.2,0.2-19.2-0.9-27.4-3.2c-3.5-1-7.6-2.4-11.2-4.9
		c-0.8-0.6-1.6-1.3-2.3-2.1c-1.3-1.5-1.3-3,0-4.3c1.3-1.4,2.8-2.5,4.3-3.4c5.2-3,11-4.3,16.4-5.4c0.7-0.1,1.4-0.2,2.1-0.3
		c0.8-0.1,1.7-0.2,2.6-0.4C40.6,91.9,40.8,92,41.1,92.5z"/>
	<path class="st0" d="M55.7,30.9C55.7,30.9,55.7,30.9,55.7,30.9c-9.3,0-16.8,7.6-16.8,16.8c0,4.5,1.8,8.7,5,11.9
		c3.2,3.2,7.4,4.9,11.9,4.9c0,0,0,0,0,0c4.5,0,8.7-1.8,11.9-5c3.2-3.2,4.9-7.4,4.9-11.9c0-4.5-1.8-8.7-5-11.9
		C64.3,32.6,60.2,30.9,55.7,30.9z M65,47.7c0,5-4.2,9.3-9.3,9.4c0,0-0.1,0-0.1,0c-5.1,0-9.2-4.1-9.3-9.3c0-2.5,0.9-4.8,2.7-6.6
		c1.8-1.8,4.1-2.8,6.6-2.8c0,0,0,0,0,0C60.7,38.4,65,42.7,65,47.7z"/>
</g>
</svg>
