<?xml version="1.0" encoding="utf-8"?>
<!-- Generator: Adobe Illustrator 24.0.1, SVG Export Plug-In . SVG Version: 6.00 Build 0)  -->
<svg version="1.1" id="Capa_1" xmlns="http://www.w3.org/2000/svg" xmlns:xlink="http://www.w3.org/1999/xlink" x="0px" y="0px"
	 viewBox="0 0 126 125.4" style="enable-background:new 0 0 126 125.4;" xml:space="preserve">
<style type="text/css">
	.st0{fill:#020203;}
</style>
<g>
	<path class="st0" d="M116.3,43.1c-1.6-0.8-3-1-4.1-0.6c-1.2,0.4-2.1,1.4-2.9,3.1c-0.6,1.3-1.1,2.8-1.5,4.1
		c-2.2,7.1-4.3,14.2-6.5,21.3l-2.6,8.6H47.6l-0.2-0.8c-0.2-0.6-0.3-1.2-0.5-1.8l-2.6-13.2c-2.2-11.4-4.7-24.2-7-36.6
		c-0.9-4.9-3-7.2-7.4-8.1c-4-0.8-8-1.9-11.9-2.9c-2-0.5-3.9-1.1-5.9-1.6c-5.3-1.3-6.8,1.4-7.3,3.2c-0.4,1.4-0.2,2.7,0.4,3.8
		c0.8,1.4,2.3,2.4,4.4,2.9c5.5,1.4,10.6,2.6,15.4,3.7c1.9,0.4,2.6,1.1,2.9,3.1c1.7,10.1,3.5,20.1,5.3,30.2l0.2,0.9
		c1.2,6.6,2.4,13.3,3.6,19.9c1.2,6.6,2.5,7.8,9.2,7.8h52.3c6.4,0,7.5-0.8,9.4-6.8l2.2-7c2.6-8.1,5.5-17.3,8.6-26.1
		C120,46.4,119.4,44.6,116.3,43.1z"/>
	<path class="st0" d="M55.8,23.6c2.8,2.7,5.6,5.3,8.6,8.1l3.6,3.4l-3.9,3.8c-2.8,2.8-5.6,5.6-8.5,8.3c-1.3,1.2-1.9,2.3-1.9,3.5
		c0,1.2,0.7,2.4,2.1,3.8c1.2,1.2,2.7,2.5,4.3,2.2c1-0.1,2-0.7,3-1.8c2.6-2.8,5.3-5.5,8.3-8.5l3.6-3.6l3.8,3.9
		c2.6,2.7,5.1,5.2,7.6,7.7c1.9,1.9,2.6,2.3,3.4,2.5l0.6,0.1l0.6-0.2c0.5-0.1,1.1-0.4,2.8-2.2c1.8-1.8,2.4-2.6,2.5-3.7l0-0.5
		c-0.1-0.8-0.5-1.6-2.4-3.5c-2.5-2.5-5.1-5-7.7-7.6l-4-3.9l3.6-3.6c2.6-2.6,5.6-5.6,8.5-8.3c1.2-1.1,1.8-2.2,1.8-3.3
		c0-1.2-0.6-2.4-2.2-4c-1.5-1.5-2.6-2.1-3.8-2.1c-1.1,0-2.2,0.7-3.4,1.9c-2.5,2.8-5.2,5.4-8.3,8.5L75,28.1l-3.6-3.6
		c-2.7-2.7-5.6-5.5-8.3-8.4c-0.8-0.8-2.1-2-3.6-2c-1.1,0-2.2,0.7-3.4,1.9c-1.8,2-2.4,2.9-2.5,3.8l-0.1,0.5l0.1,0.4
		C54,21.5,54.3,22.2,55.8,23.6z"/>
	<path class="st0" d="M93.6,94.1L93.6,94.1c-5.1,0-9.4,4.3-9.5,9.4c0,2.6,1,5,2.8,6.8c1.8,1.8,4.2,2.8,6.8,2.8
		c5.2-0.1,9.3-4.4,9.2-9.6C103,98.5,98.7,94.1,93.6,94.1z"/>
	<path class="st0" d="M51.7,94.1l-0.4,0c-5.1,0-9.1,3.9-9.4,9c-0.1,2.7,0.8,5.3,2.5,7.1c1.7,1.8,4,2.8,6.5,2.9l0.3,0
		c2.4,0,4.7-0.9,6.4-2.6c1.8-1.7,2.8-4.1,2.9-6.6C60.8,98.6,57,94.3,51.7,94.1z"/>
</g>
</svg>
