<?xml version="1.0" encoding="utf-8"?>
<!-- Generator: Adobe Illustrator 24.0.1, SVG Export Plug-In . SVG Version: 6.00 Build 0)  -->
<svg version="1.1" id="Capa_1" xmlns="http://www.w3.org/2000/svg" xmlns:xlink="http://www.w3.org/1999/xlink" x="0px" y="0px"
	 viewBox="0 0 109.8 135.7" style="enable-background:new 0 0 109.8 135.7;" xml:space="preserve">
<style type="text/css">
	.st0{fill:#32407b;}
</style>
<path class="st0" d="M89.5,19.5C78.2,8.6,62.6,3.7,46.9,6.1C22.5,10,4.4,31.6,4.8,56.5c0.1,7.6,2,15,5.4,21.7
	c1.2,2.3,4.1,3.3,6.4,2.1c1.1-0.6,2-1.6,2.4-2.8c0.4-1.2,0.3-2.5-0.3-3.6c-2.7-5.4-4.2-11.1-4.4-17.1c-0.6-20.2,14.6-38.3,34.4-41.3
	c12.6-1.8,25,2.1,34.1,10.8C92,35,96.5,47.3,95.2,59.8C93.1,80,76.2,95.6,55.9,96.1c-3.2,0.1-6.3-0.2-9.4-0.9l23-12
	c1.1-0.6,2-1.6,2.3-2.8c0.4-1.2,0.3-2.5-0.3-3.6c-0.6-1.1-1.6-2-2.8-2.3c-1.2-0.4-2.5-0.3-3.6,0.3l-30.5,16c-1.4,0.7-2.4,2-2.8,3.5
	c-0.4,1.5-0.2,3.2,0.7,4.5l18.2,29.2c0.7,1.1,1.7,1.8,3,2.1c0.3,0.1,0.7,0.1,1.1,0.1c0.9,0,1.8-0.2,2.5-0.7c1.1-0.7,1.8-1.7,2.1-3
	c0.3-1.2,0.1-2.5-0.6-3.6l-11-17.8c5.2,0.8,10.5,0.7,15.7-0.2c21.8-3.7,38.8-21.6,41.3-43.5C106.4,45.7,100.9,30.4,89.5,19.5z"/>
</svg>
