<?xml version="1.0" encoding="utf-8"?>
<!-- Generator: Adobe Illustrator 24.0.1, SVG Export Plug-In . SVG Version: 6.00 Build 0)  -->
<svg version="1.1" id="Capa_1" xmlns="http://www.w3.org/2000/svg" xmlns:xlink="http://www.w3.org/1999/xlink" x="0px" y="0px"
	 viewBox="0 0 111.4 126.5" style="enable-background:new 0 0 111.4 126.5;" xml:space="preserve">
<style type="text/css">
	.st0{fill:#32407b;}
</style>
<path class="st0" d="M103.2,111.5l-0.1-0.7c-0.1-1.1-0.3-2.2-0.4-3.3c-2.4-13.7-9.4-24.5-20.8-32c-2.4-1.6-5-2.9-7.6-4.1
	c14.4-9.4,17.3-26.2,13.7-38c-4.2-14-17.4-23.8-32-24h-0.3c-14.8,0-27.8,9.5-32.2,23.7c-3.7,11.9-1,28.7,13.7,38.4
	c-17.2,7.7-27,21.3-29,40.6c-0.2,1.6,0.8,3.3,1.8,4.2c0.9,0.8,1.9,1.2,3,1.2c0.5,0,1-0.1,1.5-0.3c1.7-0.6,3-2.3,3.3-4.3
	c0.1-0.6,0.1-1.3,0.2-2c0-0.6,0.1-1.2,0.2-1.8c1.7-9.2,6-16.9,12.8-22.8c6.1-5.2,13.2-8.3,21.2-9c6-0.6,11.7,0.2,16.9,2.3
	c11.3,4.5,18.9,12.4,22.7,23.5c0.7,2.1,1.1,4.4,1.5,6.7c0.2,1.1,0.4,2.2,0.6,3.3c0.6,3,2.9,4.7,5.6,4.2
	C101.9,116.7,103.5,114.3,103.2,111.5z M79.8,42.9c0,13.3-10.8,24.2-24.2,24.2c-13.2,0-24.1-10.8-24.1-24.1c0-6.4,2.5-12.5,7.1-17.1
	c4.6-4.6,10.7-7.2,17.1-7.2C68.9,18.8,79.8,29.6,79.8,42.9z"/>
</svg>
